# xmcd
#
# Track frame offsets:
#	150
#	19227
#	35986
#	52701
#	70173
#	84412
#	96788
#	115865
#	132626
#	149341
#	166812
#	181052
#
# Disc length: 2579 seconds
#
# Revision: 0
# Processed by: cddbd v1.5.2PL0 Copyright (c) Steve Scherf et al.
# Submitted via: audiograbber 1.83.01
#
DISCID=9f0a110c
DTITLE=LeeAnn Rimes - CB20109
DYEAR=1900
DGENRE=
TTITLE0=Vocal
TTITLE1=Vocal
TTITLE2=Vocal
TTITLE3=Vocal
TTITLE4=Vocal
TTITLE5=Vocal
TTITLE6=Commitment 
TTITLE7=The Light In Your Eyes
TTITLE8=Nothing New Under The Moon
TTITLE9=On The Side Of Angels
TTITLE10=These Arms Of Mine
TTITLE11=Cowboy's Sweetheart
EXTD=
EXTT0=
EXTT1=
EXTT2=
EXTT3=
EXTT4=
EXTT5=
EXTT6=
EXTT7=
EXTT8=
EXTT9=
EXTT10=
EXTT11=
PLAYORDER=
